# xmcd
#
# Track frame offsets:
#	150
#	16954
#	34184
#	52221
#	67105
#	81621
#	98337
#	111494
#	130934
#	148452
#	173628
#	185074
#
# Disc length: 2652 seconds
#
# Revision: 0
# Processed by: cddbd v1.5.2PL0 Copyright (c) Steve Scherf et al.
# Submitted via: audiograbber 1.83.01
#
DISCID=b70a5a0c
DTITLE=Daryle Singletary - Rockin' In The Country
DYEAR=2009
DGENRE=Country
TTITLE0=Rockin' In The Country
TTITLE1=Love You With The Lights On
TTITLE2=That's Why God Made Me
TTITLE3=How Can I Believe In You (When You'll Be Leaving Me)
TTITLE4=Going Through Hell (With You Again)
TTITLE5=Background Noise
TTITLE6=If I Ever Get Her Back
TTITLE7=Real Estate Hands
TTITLE8=She's A Woman
TTITLE9=She Sure Looks Good In Black
TTITLE10=They Know How They Grow 'Em
TTITLE11=Take Me Home Country Roads
EXTD=
EXTT0=
EXTT1=
EXTT2=
EXTT3=
EXTT4=
EXTT5=
EXTT6=
EXTT7=
EXTT8=
EXTT9=
EXTT10=
EXTT11=
PLAYORDER=
